<?xml version="1.0" encoding="UTF-8"?>
<svg version="1.1" xmlns="http://www.w3.org/2000/svg" width="1513" height="1309">
<path d="M0 0 C2.66368871 1.76307329 3.68555241 3.8596147 5.23173118 6.64296138 C5.86353293 7.76605709 6.49533469 8.88915279 7.14628196 10.0462817 C7.82454426 11.27640306 8.50276585 12.50654688 9.18094993 13.73671138 C9.89180494 15.00660183 10.60390004 16.27579882 11.3171804 17.54432857 C12.78664729 20.15899176 14.25160087 22.77610528 15.71366477 25.39491451 C18.91885944 31.12371371 22.2055435 36.80504288 25.49344993 42.48671138 C26.41831199 44.0886938 26.41831199 44.0886938 27.36185813 45.72303951 C32.08375488 53.89748591 36.83920189 62.05212712 41.60160422 70.20301998 C47.76790123 80.76318223 53.87350032 91.35813684 59.97733665 101.95448482 C63.10525141 107.38331081 66.2370344 112.80990419 69.36844993 118.23671138 C70.61846872 120.40336721 71.86846871 122.57003388 73.11844993 124.73671138 C73.73719993 125.80921138 74.35594993 126.88171138 74.99344993 127.98671138 C80.61844993 137.73671139 80.61844993 137.73671139 82.49369407 140.98719966 C83.74280511 143.15228209 84.99199122 145.31732121 86.24125266 147.48231685 C89.38047302 152.92286844 92.51835555 158.36418354 95.65360618 163.80702388 C101.67592367 174.25877417 107.7152525 184.69964253 113.80594993 195.11171138 C118.85683011 203.74953139 123.84869346 212.41990778 128.80594993 221.11171138 C139.31091117 239.52995664 149.90484343 257.89542121 160.60160422 276.20301998 C166.76790123 286.76318223 172.87350032 297.35813684 178.97733665 307.95448482 C182.10525141 313.38331081 185.2370344 318.80990419 188.36844993 324.23671138 C189.61846872 326.40336721 190.86846871 328.57003388 192.11844993 330.73671138 C192.73719993 331.80921138 193.35594993 332.88171138 193.99344993 333.98671138 C199.61844993 343.73671139 199.61844993 343.73671139 201.49369407 346.98719966 C202.74280511 349.15228209 203.99199122 351.31732121 205.24125266 353.48231685 C208.38047302 358.92286844 211.51835555 364.36418354 214.65360618 369.80702388 C220.69900151 380.29903232 226.75955211 390.78152814 232.86844993 401.23671138 C239.61546187 412.78400654 246.3018431 424.36573166 252.97733665 435.95448482 C256.10525141 441.38331081 259.2370344 446.80990419 262.36844993 452.23671138 C263.61846872 454.40336721 264.86846871 456.57003388 266.11844993 458.73671138 C266.73719993 459.80921138 267.35594993 460.88171138 267.99344993 461.98671138 C288.61844992 497.73671137 288.61844992 497.73671137 290.49369407 500.98719966 C291.74280511 503.15228209 292.99199122 505.31732121 294.24125266 507.48231685 C297.38047302 512.92286844 300.51835555 518.36418354 303.65360618 523.80702388 C309.78282116 534.4445502 315.92782349 545.07228495 322.11844993 555.67421138 C322.68974631 556.65285152 323.2610427 557.63149166 323.8496511 558.63978755 C327.19710766 564.37398421 327.19710766 564.37398421 330.54520774 570.10780513 C332.11353725 572.79530501 333.67891825 575.4844993 335.24344993 578.17421138 C335.71428 578.97979488 336.18511008 579.78537838 336.67020774 580.61537349 C339.86844993 586.12230876 339.86844993 586.12230876 339.86844993 587.23671138 C-159.42155007 587.23671138 -658.71155007 587.23671138 -1173.13155007 587.23671138 C-1171.65522439 583.54589718 -1170.18873053 580.37807971 -1168.26045632 576.94764888 C-1167.69206033 575.93388179 -1167.12366433 574.9201147 -1166.53804421 573.8756274 C-1165.62526711 572.25998897 -1165.62526711 572.25998897 -1164.69405007 570.61171138 C-1164.06297341 569.49014644 -1163.43189675 568.3685815 -1162.78169656 567.21302974 C-1157.79990577 558.37729386 -1152.73868971 549.58998424 -1147.63447976 540.82460201 C-1144.68207162 535.74085829 -1141.75332328 530.6434357 -1138.81905007 525.54921138 C-1133.97126858 517.13728113 -1129.09669024 508.74177311 -1124.19405007 500.36171138 C-1118.45694073 490.55045826 -1112.80413937 480.69233017 -1107.17403054 470.81947505 C-1097.96123357 454.66610372 -1088.6464515 438.57151228 -1079.32466531 422.48085201 C-1073.5600645 412.52813101 -1067.8170009 402.56297234 -1062.0710032 392.59950435 C-1058.30141244 386.06345915 -1054.53074357 379.52803576 -1050.7597239 372.9928149 C-1047.62018762 367.55168812 -1044.48197193 362.10980775 -1041.34639382 356.66639888 C-1035.32407679 346.21464939 -1029.2848567 335.7737159 -1023.19405007 325.36171138 C-1018.11879407 316.68408082 -1013.10951078 307.97034831 -1008.13155007 299.23671138 C-1002.89371351 290.05073766 -997.63329933 280.87878477 -992.31905007 271.73671138 C-991.73832742 270.73382076 -991.15760476 269.73093013 -990.55928445 268.69764888 C-990.01981179 267.77210201 -989.48033914 266.84655513 -988.92451882 265.89296138 C-988.45554177 265.08665279 -987.98656472 264.2803442 -987.50337625 263.44960201 C-986.15573528 261.2757245 -984.67773409 259.27206575 -983.13155007 257.23671138 C-974.51581183 258.52040773 -966.15691268 260.36489219 -957.72920632 262.55311763 C-956.43476123 262.88500887 -955.14018097 263.21637327 -953.8454783 263.54725826 C-951.07694222 264.25557086 -948.3091276 264.96660928 -945.54185891 265.67985713 C-938.01788654 267.61842883 -930.48863395 269.53636655 -922.95967507 271.45546138 C-922.18199084 271.65383665 -921.40430661 271.85221191 -920.60305619 272.05659854 C-904.28788174 276.21693127 -887.94492959 280.26057399 -871.59261346 284.27206218 C-865.10387873 285.86407075 -858.61577814 287.45866422 -852.12764382 289.05311763 C-851.41764922 289.22756971 -850.70765462 289.40202178 -849.97614503 289.58176029 C-834.3108226 293.43155604 -818.65621962 297.32381019 -803.00655007 301.23671138 C-802.35776391 301.39888778 -801.70897775 301.56106418 -801.0405314 301.72815502 C-785.15039911 305.70068809 -769.26798708 309.70301961 -753.39326882 313.73671138 C-752.27974919 314.01959011 -752.27974919 314.01959011 -751.14373422 314.30818355 C-744.62509581 315.96429843 -738.10647014 317.62046007 -731.58974099 319.28407466 C-730.9277668 319.45305515 -730.26579261 319.62203563 -729.58375859 319.79613674 C-728.26245213 320.1334534 -726.94116616 320.47085034 -725.61990094 320.80832851 C-720.46078872 322.12456258 -715.29619903 323.41844562 -710.13091588 324.71026027 C-705.89780131 325.77502384 -701.67996599 326.88895008 -697.46619725 328.02775753 C-694.47792454 328.83044629 -691.48376454 329.60951939 -688.48832917 330.38499629 C-687.06399259 330.7595605 -685.64228207 331.14428693 -684.22369981 331.54008663 C-675.54959818 333.9548064 -668.85492843 335.05019921 -660.56905007 330.73671138 C-658.573677 329.52664311 -656.65945573 328.24638031 -654.75067163 326.9040488 C-651.53597024 324.85756421 -648.17384147 323.18933111 -644.75589395 321.51732051 C-643.31019138 320.80231903 -641.8648948 320.08649614 -640.41998124 319.36990154 C-639.69648807 319.01128772 -638.97299489 318.6526739 -638.22757769 318.28319299 C-635.18110762 316.76218493 -632.15829437 315.19925485 -629.13574624 313.63115108 C-627.92547212 313.00335192 -626.71516061 312.37562481 -625.50481534 311.74796283 C-624.87439222 311.42100508 -624.2439691 311.09404733 -623.59444225 310.75718176 C-597.40637956 297.19469856 -570.98061777 284.09637907 -544.59793653 270.91813572 C-537.03910697 267.14236954 -529.4814639 263.3642311 -521.92386683 259.58599873 C-508.43341466 252.84185788 -494.94207723 246.09948999 -481.45015359 239.35829341 C-468.41159482 232.84361419 -455.37346226 226.32808324 -442.33589578 219.81141841 C-441.52972677 219.40846527 -440.72355776 219.00551213 -439.89295939 218.59034829 C-435.8448789 216.56696104 -431.79680684 214.54355691 -427.74873912 212.5201441 C-419.86000559 208.57699321 -411.97121667 204.63395313 -404.08240151 200.69096553 C-403.31912158 200.30946293 -402.55584165 199.92796033 -401.76943203 199.53489704 C-383.2034433 190.25529002 -364.63669208 180.97720886 -346.06968384 171.69964191 C-343.14582831 170.23864893 -340.22197872 168.77764407 -337.29813027 167.31663692 C-336.21622204 166.77602386 -335.13431381 166.23541081 -334.01962048 165.67841554 C-326.80059051 162.07105598 -319.58214655 158.46252703 -312.36438394 154.8526324 C-307.89879966 152.62052528 -303.43107129 150.39273401 -298.96313882 148.16533077 C-294.67981712 146.029634 -290.39736473 143.89219837 -286.11509633 141.7543906 C-282.89935169 140.14912093 -279.68323369 138.5446087 -276.46626687 136.94178951 C-257.54140812 127.5322717 -257.54140812 127.5322717 -238.80713296 117.75077999 C-234.30070541 115.34302892 -229.7485766 113.03425726 -225.1756022 110.75593746 C-218.81500016 107.58109582 -212.4604086 104.39451617 -206.11012673 101.19908321 C-205.21643134 100.74940964 -204.32273595 100.29973607 -203.40195888 99.83643603 C-201.50786949 98.88332882 -199.61380297 97.93017614 -197.71975732 96.976982 C-183.01701721 89.57812285 -168.31167832 82.18444847 -153.60072732 74.80192745 C-153.00018361 74.5005511 -152.39963989 74.19917475 -151.78089789 73.88866578 C-145.59068281 70.78227486 -139.4001616 67.67649457 -133.209327 64.57133853 C-130.0440164 62.98368282 -126.8787769 61.39588544 -123.71358132 59.80800045 C-122.76873988 59.33400586 -122.76873988 59.33400586 -121.80481073 58.85043563 C-111.55462473 53.70785192 -101.3101408 48.55400482 -91.0676358 43.39614306 C-80.52774785 38.0888431 -69.9818488 32.7936398 -59.43023109 27.50969791 C-53.51509384 24.54690943 -47.60291634 21.57852642 -41.6973536 18.59669292 C-36.15879989 15.80037677 -30.61301824 13.01897714 -25.06119561 10.24910343 C-23.02176928 9.22828568 -20.98509966 8.20193978 -18.95137811 7.1698035 C-16.18442746 5.76655704 -13.40843095 4.38316541 -10.6291697 3.00450313 C-9.81907205 2.58780294 -9.00897439 2.17110275 -8.17432833 1.74177527 C-7.05901283 1.19606382 -7.05901283 1.19606382 -5.9211657 0.63932788 C-4.96133196 0.15713269 -4.96133196 0.15713269 -3.98210764 -0.33480382 C-2.13155007 -0.76328862 -2.13155007 -0.76328862 0 0 Z " fill="#00BCF1" transform="translate(1173.1315500736237,721.7632886171341)"/>
<path d="M0 0 C3.8339058 1.2779686 4.10636815 2.47450668 6.00390625 5.96875 C6.57423584 7.00572021 7.14456543 8.04269043 7.73217773 9.11108398 C8.33618408 10.22942627 8.94019043 11.34776855 9.5625 12.5 C10.83454357 14.81456871 12.10798382 17.12837037 13.3828125 19.44140625 C14.00446289 20.57336426 14.62611328 21.70532227 15.26660156 22.87158203 C17.42504161 26.7671103 19.65862896 30.61154113 21.9375 34.4375 C26.09914797 41.44645433 30.18335925 48.49800187 34.25 55.5625 C39.11766796 64.01670974 44.01045359 72.45526577 48.9375 80.875 C54.35936242 90.14490856 59.70205005 99.45831909 65.01922607 108.78845215 C70.22045129 117.9128284 75.48027878 127.00132774 80.78344727 136.06689453 C86.93766742 146.59084625 93.02369996 157.15380137 99.10888672 167.71777344 C102.23680148 173.14659942 105.36858448 178.57319281 108.5 184 C109.75001879 186.16665583 111.00001878 188.3333225 112.25 190.5 C113.178125 192.10875 113.178125 192.10875 114.125 193.75 C134.75 229.5 134.75 229.5 136.62524414 232.75048828 C137.87435518 234.91557071 139.12354129 237.08060982 140.37280273 239.24560547 C143.51202309 244.68615706 146.64990563 250.12747216 149.78515625 255.5703125 C155.80747329 266.02206199 161.84669337 276.46299548 167.9375 286.875 C173.35921178 296.14499777 178.70204915 305.45831752 184.01922607 314.78845215 C189.22045129 323.9128284 194.48027878 333.00132774 199.78344727 342.06689453 C207.21410379 354.77360125 214.54885755 367.53562593 221.89550781 380.29101562 C228.56956364 391.87681858 235.25475998 403.45546327 242 415 C252.46157659 432.90847626 262.80093513 450.88623901 273.07608032 468.90216064 C278.25985125 477.98795878 283.50194021 487.03821041 288.78369141 496.06738281 C296.21438893 508.77385453 303.54894865 521.53578411 310.89550781 534.29101562 C312.78398493 537.56931062 314.67301666 540.84728485 316.5625 544.125 C317.18447266 545.20394531 317.80644531 546.28289063 318.44726562 547.39453125 C322.58688448 554.56871951 326.75524921 561.7255998 330.9375 568.875 C336.01275239 577.55262439 341.02245629 586.26612926 346 595 C351.08402868 603.91988265 356.19876734 612.82066036 361.375 621.6875 C361.94492676 622.66412598 362.51485352 623.64075195 363.10205078 624.64697266 C365.74882446 629.1747335 368.40849346 633.69416592 371.09375 638.19921875 C371.56635254 638.99432861 372.03895508 639.78943848 372.52587891 640.60864258 C373.39918776 642.075694 374.27622884 643.5405328 375.15771484 645.00268555 C378 649.77794241 378 649.77794241 378 652 C374.79446442 653.0503962 371.58501658 654.08838678 368.375 655.125 C367.51003906 655.40859375 366.64507813 655.6921875 365.75390625 655.984375 C358.20887351 658.41144847 350.58682118 660.49658637 342.93721008 662.56187439 C332.70765568 665.33185258 322.53099258 668.27784713 312.35348511 671.23236084 C295.89863303 676.00803532 279.43499595 680.74875932 262.9375 685.375 C247.22929956 689.7829102 231.54964949 694.28683067 215.875 698.8125 C192.57385739 705.5400249 169.25932202 712.21952798 145.9375 718.875 C120.7627266 726.05927043 95.59752895 733.27559152 70.44309998 740.53076172 C49.45945095 746.58255665 28.46147379 752.58144969 7.4375 758.49194336 C-5.54366933 762.14576613 -18.50301959 765.87241989 -31.45703125 769.62109375 C-51.62705231 775.45763728 -71.80784544 781.25619282 -91.9921875 787.04296875 C-93.16185346 787.37831178 -93.16185346 787.37831178 -94.35514903 787.72042942 C-104.0653815 790.50428071 -113.77585141 793.28730321 -123.48640579 796.0700314 C-129.20180317 797.70790914 -134.91709612 799.34615084 -140.63232422 800.98461914 C-198.44648208 817.55902661 -198.44648208 817.55902661 -224.85791016 825.10327148 C-225.57416054 825.30786983 -226.29041091 825.51246818 -227.02836585 825.72326648 C-234.39655199 827.82793535 -241.76497707 829.93176383 -249.13375854 832.03434753 C-263.95040172 836.26327964 -278.75898592 840.5193112 -293.56045532 844.80105209 C-296.82961582 845.74668702 -300.09894888 846.69172316 -303.36834717 847.63653564 C-304.3657127 847.92476826 -305.36307823 848.21300087 -306.39066696 848.5099678 C-321.29512108 852.81365529 -336.22415558 857.02864867 -351.15570068 861.23718262 C-369.38125959 866.37719714 -387.57043884 871.63772532 -405.75 876.9375 C-428.60495652 883.60025391 -451.49431706 890.12447827 -474.42480469 896.52319336 C-475.51450562 896.82742722 -476.60420654 897.13166107 -477.72692871 897.44511414 C-479.87121007 898.04323702 -482.01581647 898.64019602 -484.1607666 899.23591614 C-490.0399437 900.87338452 -495.90548916 902.55150063 -501.76074219 904.27246094 C-503.05889414 904.65175097 -504.35710126 905.03085225 -505.65536499 905.40975952 C-508.14677679 906.13885625 -510.63615686 906.87494076 -513.12319946 907.61880493 C-514.79930801 908.10792862 -514.79930801 908.10792862 -516.50927734 908.60693359 C-517.49874359 908.90038666 -518.48820984 909.19383972 -519.50765991 909.4961853 C-522 910 -522 910 -525 909 C-519.00345951 898.05700445 -512.83612897 887.22600612 -506.53125 876.45776367 C-502.12020142 868.92400099 -497.73650862 861.37505438 -493.375 853.8125 C-492.74577637 852.72146973 -492.11655273 851.63043945 -491.46826172 850.50634766 C-487.12035234 842.95995022 -482.80021536 835.39800966 -478.48779297 827.83129883 C-474.11309467 820.16936066 -469.66235381 812.55263227 -465.20849609 804.93652344 C-461.45899178 798.51852733 -457.74294847 792.08282967 -454.0625 785.625 C-444.22922705 768.3714767 -434.28633856 751.18196042 -424.26782227 734.03540039 C-417.46455973 722.38425264 -410.73381483 710.6913735 -404 699 C-396.71806492 686.35697001 -389.42953958 673.71867668 -382.0625 661.125 C-376.64177983 651.85669767 -371.29940317 642.54535637 -365.98379517 633.21658325 C-360.71460279 623.97134818 -355.38013907 614.76599867 -350.00561523 605.58154297 C-346.32266379 599.28246222 -342.67552917 592.96443283 -339.0625 586.625 C-329.22921393 569.37148401 -319.28633868 552.18196062 -309.26782227 535.03540039 C-303.09959899 524.4718097 -296.99233752 513.87329525 -290.88671875 503.2734375 C-289.0203162 500.0352484 -287.15126237 496.79860562 -285.28125 493.5625 C-279.14490546 482.94122138 -273.02837037 472.30927037 -266.95184326 461.65368652 C-261.09387165 451.38152763 -255.18710152 441.13970887 -249.21630859 430.93261719 C-243.06207011 420.40888681 -236.97620913 409.8460408 -230.89111328 399.28222656 C-227.13971976 392.77128743 -223.38309006 386.26336806 -219.62744141 379.75488281 C-216.48817754 374.31414664 -213.35018503 368.87268523 -210.21484375 363.4296875 C-204.19252671 352.97793801 -198.15330663 342.53700452 -192.0625 332.125 C-186.64041301 322.85436069 -181.29675988 313.54063301 -175.97976685 304.20953369 C-170.80621213 295.13221364 -165.56857846 286.09428467 -160.2890625 277.078125 C-155.80833735 269.41426026 -151.39505776 261.71314165 -147 254 C-141.46095171 244.28017815 -135.86853782 234.593501 -130.21875 224.9375 C-125.95116745 217.64099831 -121.71851044 210.3249718 -117.5 203 C-112.69155207 194.6519743 -107.86085677 186.31761838 -103 178 C-92.53823946 160.0916331 -82.19906365 142.11375884 -71.92391968 124.09783936 C-66.74014875 115.01204122 -61.49805979 105.96178959 -56.21630859 96.93261719 C-50.06207011 86.40888681 -43.97620913 75.8460408 -37.89111328 65.28222656 C-34.14561565 58.78152037 -30.39502735 52.28374968 -26.64501953 45.78564453 C-23.74705111 40.76346298 -20.85005713 35.74072934 -17.95724487 30.71557617 C-16.94052802 28.94954478 -15.92344342 27.18372569 -14.90625 25.41796875 C-13.63599127 23.21265845 -12.36640982 21.00695784 -11.09765625 18.80078125 C-7.46359212 12.49366105 -3.76901741 6.22744663 0 0 Z " fill="#ED1D24" transform="translate(755,0)"/>
<path d="M0 0 C8.61573824 1.28369635 16.9746374 3.12818081 25.40234375 5.31640625 C26.69678884 5.64829749 27.9913691 5.97966189 29.28607178 6.31054688 C32.05460785 7.01885948 34.82242247 7.7298979 37.58969116 8.44314575 C45.11366353 10.38171745 52.64291613 12.29965517 60.171875 14.21875 C60.94955923 14.41712526 61.72724346 14.61550053 62.52849388 14.81988716 C78.84366833 18.98021989 95.18662049 23.02386261 111.53893661 27.0353508 C118.02767134 28.62735937 124.51577193 30.22195284 131.00390625 31.81640625 C131.71390085 31.99085833 132.42389545 32.1653104 133.15540504 32.3450489 C148.82072747 36.19484465 164.47533045 40.08709881 180.125 44 C180.77378616 44.1621764 181.42257233 44.3243528 182.09101868 44.49144363 C197.98115096 48.46397671 213.86356299 52.46630823 229.73828125 56.5 C230.48062767 56.68858582 231.22297409 56.87717163 231.98781586 57.07147217 C239.17531147 58.89751584 246.36243995 60.72496697 253.54776764 62.55952454 C256.82186702 63.39519665 260.09640876 64.22912598 263.37109375 65.0625 C264.63802063 65.38500732 265.90494751 65.70751465 267.21026611 66.03979492 C274.12678748 67.79207824 281.05107548 69.5053185 287.98876953 71.171875 C288.73703664 71.35185532 289.48530375 71.53183563 290.25624561 71.7172699 C293.86337637 72.58397884 297.4715985 73.44564233 301.08189392 74.29907227 C302.39194015 74.61204465 303.70196426 74.92510966 305.01196289 75.23828125 C306.14646378 75.50680908 307.28096466 75.77533691 308.44984436 76.05200195 C311.03662643 76.74275036 313.48444127 77.49443845 316.00437927 78.3714447 C322.53202974 80.58592258 329.23348913 82.1589183 335.91796875 83.81860352 C337.41667037 84.19347707 338.91529493 84.56865884 340.41384888 84.94412231 C344.48340678 85.96279306 348.55404886 86.97706724 352.62491226 87.99050641 C356.96889294 89.07269241 361.3118968 90.15878553 365.6550293 91.24436951 C373.01519982 93.08348765 380.37602611 94.9199609 387.73730469 96.75463867 C396.93564729 99.04718492 406.13297359 101.34377839 415.32993793 103.64184666 C454.80360809 113.50519681 494.28932719 123.31848411 533.7989502 133.03688049 C536.58042381 133.72111964 539.36187944 134.40543184 542.14331055 135.08984375 C542.81146837 135.25425335 543.47962619 135.41866295 544.16803122 135.58805466 C558.72459907 139.17091633 573.26983289 142.79865047 587.8125 146.4375 C589.05027852 146.74705061 589.05027852 146.74705061 590.31306267 147.06285477 C594.68562682 148.15637067 599.05774762 149.25164746 603.4296875 150.34765625 C606.31996474 151.07186611 609.21027723 151.79593528 612.10058594 152.52001953 C612.86804453 152.71229724 613.63550312 152.90457495 614.42621803 153.10267925 C634.76229385 158.19752033 655.09959823 163.28745324 675.4375 168.375 C676.6100597 168.66833725 677.7826194 168.9616745 678.99071121 169.26390076 C709.0651964 176.78721596 739.14591388 184.28346949 769.25 191.6875 C769.97862999 191.86670486 770.70725998 192.04590973 771.45796967 192.23054504 C772.91933017 192.58995675 774.3806911 192.94936673 775.84205246 193.30877495 C779.40907852 194.18609945 782.97605356 195.06363108 786.54296875 195.94140625 C787.23234528 196.11105267 787.9217218 196.28069908 788.63198853 196.4554863 C804.28468613 200.30853462 819.92495949 204.21095218 835.5625 208.125 C836.22435932 208.29064201 836.88621864 208.45628403 837.56813431 208.6269455 C848.5959391 211.38694663 859.62285997 214.15047152 870.64953613 216.91497803 C879.16179773 219.04905634 887.67440207 221.18176018 896.1875 223.3125 C897.43580597 223.62495667 898.68411194 223.93741333 899.97024536 224.25933838 C918.98019589 229.01546322 937.99826353 233.73856782 957.01953125 238.44921875 C958.17935202 238.73645624 959.33917278 239.02369373 960.53413963 239.31963539 C972.21046505 242.21116026 983.88711314 245.10137718 995.56441307 247.98896408 C1029.59825091 256.40539699 1063.61478601 264.89002299 1097.62432724 273.40397483 C1105.5682852 275.39265601 1113.5124102 277.38066962 1121.45654297 279.36865234 C1122.93484307 279.7385972 1124.41314317 280.10854209 1125.89144325 280.47848701 C1137.92737777 283.490448 1149.9634511 286.50185403 1161.99962425 289.51286125 C1169.59553436 291.41311514 1177.19132564 293.31384182 1184.78686523 295.21557617 C1217.96077144 303.52118624 1251.14103493 311.80056675 1284.34195733 319.99760747 C1286.62787733 320.56229228 1288.91359438 321.12779158 1291.19925499 321.69352531 C1294.75980741 322.57467697 1298.32092241 323.45351694 1301.88250136 324.3305099 C1303.80403511 324.80417953 1305.72504055 325.2799907 1307.64602852 325.75586891 C1308.79653128 326.03857832 1309.94703403 326.32128773 1311.13240051 326.61256409 C1312.62391742 326.98051763 1312.62391742 326.98051763 1314.14556599 327.35590458 C1317.0844117 328.01904727 1320.02422941 328.53296101 1323 329 C1323 329.33 1323 329.66 1323 330 C823.71 330 324.42 330 -190 330 C-188.52367432 326.3091858 -187.05718046 323.14136833 -185.12890625 319.7109375 C-184.56051025 318.69717041 -183.99211426 317.68340332 -183.40649414 316.63891602 C-182.49371704 315.02327759 -182.49371704 315.02327759 -181.5625 313.375 C-180.93142334 312.25343506 -180.30034668 311.13187012 -179.65014648 309.97631836 C-174.6683557 301.14058248 -169.60713963 292.35327285 -164.50292969 283.58789062 C-161.55052154 278.5041469 -158.6217732 273.40672431 -155.6875 268.3125 C-150.8397185 259.90056975 -145.96514017 251.50506173 -141.0625 243.125 C-135.32539065 233.31374687 -129.6725893 223.45561879 -124.04248047 213.58276367 C-114.82968349 197.42939233 -105.51490143 181.3348009 -96.19311523 165.24414062 C-90.42851443 155.29141963 -84.68545083 145.32626096 -78.93945312 135.36279297 C-75.16986237 128.82674777 -71.3991935 122.29132438 -67.62817383 115.75610352 C-64.48863754 110.31497674 -61.35042186 104.87309637 -58.21484375 99.4296875 C-52.19252671 88.97793801 -46.15330663 78.53700452 -40.0625 68.125 C-34.987244 59.44736943 -29.97796071 50.73363692 -25 42 C-19.76216343 32.81402628 -14.50174926 23.64207339 -9.1875 14.5 C-8.31641602 12.99566406 -8.31641602 12.99566406 -7.42773438 11.4609375 C-6.88826172 10.53539062 -6.34878906 9.60984375 -5.79296875 8.65625 C-5.3239917 7.84994141 -4.85501465 7.04363281 -4.37182617 6.21289062 C-3.02418521 4.03901312 -1.54618402 2.03535437 0 0 Z " fill="#007DB9" transform="translate(190,979)"/>
<path d="M0 0 C8.61573824 1.28369635 16.9746374 3.12818081 25.40234375 5.31640625 C26.69678884 5.64829749 27.9913691 5.97966189 29.28607178 6.31054688 C32.05460785 7.01885948 34.82242247 7.7298979 37.58969116 8.44314575 C45.11366353 10.38171745 52.64291613 12.29965517 60.171875 14.21875 C60.94955923 14.41712526 61.72724346 14.61550053 62.52849388 14.81988716 C78.84366833 18.98021989 95.18662049 23.02386261 111.53893661 27.0353508 C118.02767134 28.62735937 124.51577193 30.22195284 131.00390625 31.81640625 C131.71390085 31.99085833 132.42389545 32.1653104 133.15540504 32.3450489 C148.82072747 36.19484465 164.47533045 40.08709881 180.125 44 C180.77378616 44.1621764 181.42257233 44.3243528 182.09101868 44.49144363 C197.98115096 48.46397671 213.86356299 52.46630823 229.73828125 56.5 C230.48062767 56.68858582 231.22297409 56.87717163 231.98781586 57.07147217 C239.17526485 58.897504 246.36234004 60.72496913 253.54763031 62.55947876 C272.99626318 67.52359928 292.48326956 72.31135824 312 77 C312 77.66 312 78.32 312 79 C303.73435143 83.55720592 295.36804533 87.82289227 286.83203125 91.8515625 C273.6937993 98.09654756 260.67971233 104.58345252 247.67382812 111.09790039 C244.39588074 112.73973317 241.11611997 114.3779068 237.83587646 116.01514626 C225.49520457 122.17639533 213.17959053 128.3715815 200.99737549 134.84254456 C195.56866731 137.72118263 190.08051172 140.42671537 184.5 143 C177.97674061 146.06008687 171.54212284 149.22864852 165.1875 152.625 C156.47290072 157.28151132 147.65427169 161.71649471 138.8125 166.125 C138.14721283 166.45671204 137.48192566 166.78842407 136.79647827 167.13018799 C133.57145658 168.73754736 130.3456949 170.34341537 127.11958313 171.94858551 C123.51722764 173.7417471 119.91725565 175.53962509 116.31835938 177.33972168 C114.90029722 178.04892106 113.48223153 178.75811338 112.06416321 179.46730042 C111.26817026 179.86540735 110.47217731 180.26351429 109.65206337 180.67368507 C104.98516952 183.00763043 100.31801934 185.34106315 95.65090406 187.67456567 C92.5088366 189.24556871 89.36678508 190.81660359 86.22473145 192.38763428 C84.87968452 193.06015792 83.53463752 193.73268142 82.18959045 194.40520477 C81.50603989 194.74698006 80.82248932 195.08875534 80.1182251 195.44088745 C-2.0252533 236.51262665 -84.16873169 277.58436584 -189 330 C-189.33 329.34 -189.66 328.68 -190 328 C-188.92700195 325.71948242 -188.92700195 325.71948242 -187.23828125 322.85546875 C-186.62017578 321.79714844 -186.00207031 320.73882813 -185.36523438 319.6484375 C-184.68104246 318.49476031 -183.99679631 317.34111528 -183.3125 316.1875 C-182.61565406 314.99921494 -181.91969851 313.81040731 -181.22460938 312.62109375 C-179.81624414 310.21229596 -178.40460932 307.80546289 -176.99072266 305.39990234 C-174.29004578 300.78748805 -171.64130402 296.14657802 -169 291.5 C-159.77424175 275.32486792 -150.46406749 259.19856128 -141.0625 243.125 C-135.32549295 233.31368637 -129.67258987 223.45561979 -124.04248047 213.58276367 C-114.82968349 197.42939233 -105.51490143 181.3348009 -96.19311523 165.24414062 C-90.42851443 155.29141963 -84.68545083 145.32626096 -78.93945312 135.36279297 C-75.16986237 128.82674777 -71.3991935 122.29132438 -67.62817383 115.75610352 C-64.48863754 110.31497674 -61.35042186 104.87309637 -58.21484375 99.4296875 C-52.19252671 88.97793801 -46.15330663 78.53700452 -40.0625 68.125 C-34.987244 59.44736943 -29.97796071 50.73363692 -25 42 C-19.76216343 32.81402628 -14.50174926 23.64207339 -9.1875 14.5 C-8.31641602 12.99566406 -8.31641602 12.99566406 -7.42773438 11.4609375 C-6.88826172 10.53539062 -6.34878906 9.60984375 -5.79296875 8.65625 C-5.3239917 7.84994141 -4.85501465 7.04363281 -4.37182617 6.21289062 C-3.02418521 4.03901312 -1.54618402 2.03535437 0 0 Z " fill="#B1D135" transform="translate(190,979)"/>
</svg>
